<?xml version="1.0" encoding="UTF-8" standalone="no"?>
<!-- Created with Inkscape (http://www.inkscape.org/) -->

<svg
   width="140mm"
   height="140mm"
   viewBox="0 0 140 140"
   version="1.1"
   id="svg1"
   xml:space="preserve"
   xmlns="http://www.w3.org/2000/svg"
   xmlns:svg="http://www.w3.org/2000/svg"><defs
     id="defs1" /><g
     id="layer1"
     transform="translate(-35.082474,-77.87056)"><path
       id="rect1"
       style="fill:#ececec;fill-opacity:1;stroke:none;stroke-width:0;stroke-dasharray:none"
       d="m 52.033516,92.043477 v 55.033333 55.03333 H 63.675183 75.31685 V 147.07681 92.043477 H 63.675183 Z m 70.984814,1.058334 -4.4881,5.225521 c -8.82656,10.276528 -24.408699,28.400878 -32.22232,37.479878 -4.371625,5.0796 -8.572684,9.97934 -9.335864,10.88823 l -1.387512,1.65261 2.854089,3.26698 c 1.569848,1.79688 7.488619,8.62481 13.152686,15.17324 5.664066,6.54843 12.266971,14.17098 14.673001,16.93902 2.40603,2.76803 7.28082,8.39374 10.83294,12.50156 l 6.45852,7.46879 h 17.28783 17.28783 V 148.39973 93.101811 h -17.55655 z m 10.90683,23.981479 c 0.18703,-0.10146 0.14439,0.1205 0.17105,0.31936 0.13226,0.98669 0.30926,62.74708 0.17983,62.74708 -0.0582,0 -1.76918,-1.98192 -3.80183,-4.40438 -3.95896,-4.71819 -14.65017,-17.44205 -19.7466,-23.5009 -2.66601,-3.16946 -3.05914,-3.75359 -2.76107,-4.10104 0.19117,-0.22284 4.6758,-5.64389 9.9658,-12.04681 12.79985,-15.49269 15.43173,-18.70892 15.99282,-19.01331 z" /></g></svg>
